<?xml version="1.0" encoding="UTF-8" standalone="no"?>
<svg
   version="1.0"
   width="500.000000pt"
   height="500.000000pt"
   viewBox="0 0 500.000000 500.000000"
   preserveAspectRatio="xMidYMid meet"
   id="svg1"
   sodipodi:docname="icon_invert.svg"
   inkscape:version="1.3.2 (091e20ef0f, 2023-11-25, custom)"
   xmlns:inkscape="http://www.inkscape.org/namespaces/inkscape"
   xmlns:sodipodi="http://sodipodi.sourceforge.net/DTD/sodipodi-0.dtd"
   xmlns="http://www.w3.org/2000/svg"
   xmlns:svg="http://www.w3.org/2000/svg">
  <defs
     id="defs1" />
  <sodipodi:namedview
     id="namedview1"
     pagecolor="#ffffff"
     bordercolor="#000000"
     borderopacity="0.25"
     inkscape:showpageshadow="2"
     inkscape:pageopacity="0.0"
     inkscape:pagecheckerboard="0"
     inkscape:deskcolor="#d1d1d1"
     inkscape:document-units="pt"
     inkscape:zoom="0.93318339"
     inkscape:cx="254.50517"
     inkscape:cy="379.34666"
     inkscape:window-width="1920"
     inkscape:window-height="1008"
     inkscape:window-x="0"
     inkscape:window-y="0"
     inkscape:window-maximized="1"
     inkscape:current-layer="svg1" />
  <g
     transform="translate(0.000000,500.000000) scale(0.100000,-0.100000)"
     fill="#000000"
     stroke="none"
     id="g1">
    <path
       d="m 2654,4585 c 94,-314 104,-365 118,-562 1,-7 60,43 131,110 71,67 146,137 166,155 l 36,32 7,-32 c 4,-18 8,-60 9,-93 l 3,-60 -167,-198 c -92,-109 -166,-201 -163,-205 2,-4 12,-119 21,-257 10,-137 20,-253 24,-257 3,-4 85,24 181,63 96,38 207,80 245,94 l 71,26 113,248 c 93,205 117,251 139,261 53,24 152,59 152,54 0,-4 -34,-107 -75,-229 -41,-123 -75,-226 -75,-229 0,-3 24,4 53,16 122,50 250,91 530,168 269,75 300,81 327,70 30,-12 38,-37 24,-74 -9,-23 -460,-417 -584,-510 -58,-43 -106,-82 -108,-85 -1,-4 106,-33 238,-65 132,-33 239,-62 238,-67 -5,-14 -142,-109 -158,-109 -8,0 -134,18 -280,39 l -265,39 -210,-155 c -115,-85 -211,-157 -212,-161 -1,-4 92,-84 206,-177 l 208,-171 283,18 282,18 75,-62 c 62,-52 72,-63 56,-69 -10,-4 -121,-24 -248,-44 -126,-20 -231,-37 -232,-39 -1,-1 48,-43 110,-94 61,-50 219,-196 349,-324 192,-189 238,-239 242,-266 5,-29 2,-34 -28,-48 -33,-16 -35,-16 -357,99 -178,63 -378,140 -444,170 -66,30 -121,54 -122,53 -1,-1 32,-111 73,-245 41,-134 73,-245 71,-248 -3,-2 -43,15 -90,38 l -86,43 -109,265 -109,266 -239,112 c -132,62 -245,112 -251,113 -7,0 -13,-8 -13,-17 0,-10 -13,-133 -30,-273 l -29,-255 27,-26 c 15,-14 123,-115 240,-224 l 214,-199 -6,-40 c -3,-23 -8,-67 -12,-99 -3,-31 -8,-57 -11,-57 -3,0 -53,37 -111,83 -150,117 -352,268 -366,273 -8,3 -15,-34 -25,-128 -12,-128 -17,-146 -125,-468 L 2463,255 h -38 -39 l -18,70 c -10,39 -53,192 -95,340 -66,234 -78,287 -87,399 -7,85 -15,131 -23,133 -7,3 -119,-68 -250,-156 l -238,-161 -7,47 c -3,27 -7,71 -7,100 l -1,51 248,207 247,206 -12,172 c -6,95 -14,197 -17,227 -3,30 -5,76 -6,101 0,37 -3,46 -16,45 -9,0 -125,-44 -257,-96 l -239,-95 -52,-111 c -28,-61 -76,-164 -106,-230 -87,-187 -77,-175 -152,-205 -106,-43 -112,-44 -104,-23 32,80 154,449 150,455 -2,4 -57,-14 -122,-40 -64,-26 -262,-89 -440,-141 -291,-84 -325,-92 -347,-80 -20,11 -25,21 -25,50 0,35 9,44 258,263 141,124 298,257 349,294 51,37 94,73 97,79 2,7 -81,31 -225,64 -126,30 -229,57 -229,61 0,15 125,109 144,109 11,0 132,-14 268,-31 137,-17 257,-29 268,-27 19,3 440,308 439,318 0,3 -92,79 -205,170 -137,110 -212,165 -227,164 -12,-1 -138,-12 -279,-25 l -257,-23 -67,59 c -37,33 -63,60 -58,62 17,5 449,95 462,96 16,0 18,-2 -103,100 -50,41 -194,175 -320,298 -196,190 -230,228 -233,255 -2,26 2,36 22,50 25,16 34,13 353,-94 263,-88 474,-170 535,-208 4,-2 -1,24 -11,58 -10,35 -40,139 -66,231 -26,92 -46,170 -43,172 5,5 43,-9 123,-45 40,-18 40,-18 144,-274 57,-141 108,-256 112,-256 7,0 246,-105 369,-162 109,-50 109,-50 115,-25 2,12 16,119 30,237 14,118 28,227 31,242 4,21 -1,34 -20,53 -14,14 -26,28 -26,30 0,10 -163,215 -171,215 -5,0 -8,3 -6,8 1,4 -19,35 -45,68 l -47,62 10,88 c 5,48 11,90 13,91 2,2 74,-69 160,-158 86,-89 158,-160 160,-158 2,2 12,60 21,129 15,109 31,164 126,440 64,184 116,320 126,328 14,10 20,9 34,-5 10,-10 60,-162 113,-338 z"
       id="path1"
       style="display:inline;fill:#56c7d1;fill-opacity:1"
       sodipodi:nodetypes="ccsccccccccccccccscsccccccccscccscccccccccccccssscccccccscccccccscccccccccccccccccccsccccccccccccscsccsscccccccccccccccccscscsccscssscccccsscccsc" />
  </g>
</svg>
